<mxfile host="app.diagrams.net" modified="2022-11-07T14:03:19.041Z" agent="5.0 (Windows NT 10.0; Win64; x64) AppleWebKit/537.36 (KHTML, like Gecko) Chrome/105.0.0.0 Safari/537.36 OPR/91.0.4516.106" etag="aQt607DSQVAPx19zenGi" version="20.5.3" type="github">
  <diagram id="Zm2n4_mefB6X2REou1yo" name="Page-1">
    <mxGraphModel dx="1485" dy="375" grid="1" gridSize="10" guides="1" tooltips="1" connect="1" arrows="1" fold="1" page="1" pageScale="1" pageWidth="827" pageHeight="1169" math="0" shadow="0">
      <root>
        <mxCell id="0" />
        <mxCell id="1" parent="0" />
        <mxCell id="Km5KgOMg6tNFVgr9Pe1_-1" value="user" style="swimlane;fontStyle=0;childLayout=stackLayout;horizontal=1;startSize=26;fillColor=none;horizontalStack=0;resizeParent=1;resizeParentMax=0;resizeLast=0;collapsible=1;marginBottom=0;" parent="1" vertex="1">
          <mxGeometry x="190" y="10" width="140" height="182" as="geometry" />
        </mxCell>
        <mxCell id="Km5KgOMg6tNFVgr9Pe1_-2" value="id : int" style="text;strokeColor=none;fillColor=none;align=left;verticalAlign=top;spacingLeft=4;spacingRight=4;overflow=hidden;rotatable=0;points=[[0,0.5],[1,0.5]];portConstraint=eastwest;" parent="Km5KgOMg6tNFVgr9Pe1_-1" vertex="1">
          <mxGeometry y="26" width="140" height="26" as="geometry" />
        </mxCell>
        <mxCell id="Km5KgOMg6tNFVgr9Pe1_-3" value="name : text" style="text;strokeColor=none;fillColor=none;align=left;verticalAlign=top;spacingLeft=4;spacingRight=4;overflow=hidden;rotatable=0;points=[[0,0.5],[1,0.5]];portConstraint=eastwest;" parent="Km5KgOMg6tNFVgr9Pe1_-1" vertex="1">
          <mxGeometry y="52" width="140" height="26" as="geometry" />
        </mxCell>
        <mxCell id="Km5KgOMg6tNFVgr9Pe1_-62" value="biography : text" style="text;strokeColor=none;fillColor=none;align=left;verticalAlign=top;spacingLeft=4;spacingRight=4;overflow=hidden;rotatable=0;points=[[0,0.5],[1,0.5]];portConstraint=eastwest;" parent="Km5KgOMg6tNFVgr9Pe1_-1" vertex="1">
          <mxGeometry y="78" width="140" height="26" as="geometry" />
        </mxCell>
        <mxCell id="Km5KgOMg6tNFVgr9Pe1_-63" value="profile_picture : text" style="text;strokeColor=none;fillColor=none;align=left;verticalAlign=top;spacingLeft=4;spacingRight=4;overflow=hidden;rotatable=0;points=[[0,0.5],[1,0.5]];portConstraint=eastwest;" parent="Km5KgOMg6tNFVgr9Pe1_-1" vertex="1">
          <mxGeometry y="104" width="140" height="26" as="geometry" />
        </mxCell>
        <mxCell id="Km5KgOMg6tNFVgr9Pe1_-5" value="password : text" style="text;strokeColor=none;fillColor=none;align=left;verticalAlign=top;spacingLeft=4;spacingRight=4;overflow=hidden;rotatable=0;points=[[0,0.5],[1,0.5]];portConstraint=eastwest;" parent="Km5KgOMg6tNFVgr9Pe1_-1" vertex="1">
          <mxGeometry y="130" width="140" height="26" as="geometry" />
        </mxCell>
        <mxCell id="Km5KgOMg6tNFVgr9Pe1_-30" value="createdAt : date" style="text;strokeColor=none;fillColor=none;align=left;verticalAlign=top;spacingLeft=4;spacingRight=4;overflow=hidden;rotatable=0;points=[[0,0.5],[1,0.5]];portConstraint=eastwest;" parent="Km5KgOMg6tNFVgr9Pe1_-1" vertex="1">
          <mxGeometry y="156" width="140" height="26" as="geometry" />
        </mxCell>
        <mxCell id="Km5KgOMg6tNFVgr9Pe1_-6" value="user_to_gallery" style="swimlane;fontStyle=0;childLayout=stackLayout;horizontal=1;startSize=26;fillColor=none;horizontalStack=0;resizeParent=1;resizeParentMax=0;resizeLast=0;collapsible=1;marginBottom=0;" parent="1" vertex="1">
          <mxGeometry x="190" y="230" width="140" height="78" as="geometry" />
        </mxCell>
        <mxCell id="Km5KgOMg6tNFVgr9Pe1_-7" value="id_user : int" style="text;strokeColor=none;fillColor=none;align=left;verticalAlign=top;spacingLeft=4;spacingRight=4;overflow=hidden;rotatable=0;points=[[0,0.5],[1,0.5]];portConstraint=eastwest;" parent="Km5KgOMg6tNFVgr9Pe1_-6" vertex="1">
          <mxGeometry y="26" width="140" height="26" as="geometry" />
        </mxCell>
        <mxCell id="Km5KgOMg6tNFVgr9Pe1_-8" value="id_gallery : int" style="text;strokeColor=none;fillColor=none;align=left;verticalAlign=top;spacingLeft=4;spacingRight=4;overflow=hidden;rotatable=0;points=[[0,0.5],[1,0.5]];portConstraint=eastwest;" parent="Km5KgOMg6tNFVgr9Pe1_-6" vertex="1">
          <mxGeometry y="52" width="140" height="26" as="geometry" />
        </mxCell>
        <mxCell id="Km5KgOMg6tNFVgr9Pe1_-11" value="gallery" style="swimlane;fontStyle=0;childLayout=stackLayout;horizontal=1;startSize=26;fillColor=none;horizontalStack=0;resizeParent=1;resizeParentMax=0;resizeLast=0;collapsible=1;marginBottom=0;" parent="1" vertex="1">
          <mxGeometry x="190" y="360" width="140" height="182" as="geometry" />
        </mxCell>
        <mxCell id="Km5KgOMg6tNFVgr9Pe1_-12" value="id : int" style="text;strokeColor=none;fillColor=none;align=left;verticalAlign=top;spacingLeft=4;spacingRight=4;overflow=hidden;rotatable=0;points=[[0,0.5],[1,0.5]];portConstraint=eastwest;" parent="Km5KgOMg6tNFVgr9Pe1_-11" vertex="1">
          <mxGeometry y="26" width="140" height="26" as="geometry" />
        </mxCell>
        <mxCell id="Km5KgOMg6tNFVgr9Pe1_-13" value="name : text" style="text;strokeColor=none;fillColor=none;align=left;verticalAlign=top;spacingLeft=4;spacingRight=4;overflow=hidden;rotatable=0;points=[[0,0.5],[1,0.5]];portConstraint=eastwest;" parent="Km5KgOMg6tNFVgr9Pe1_-11" vertex="1">
          <mxGeometry y="52" width="140" height="26" as="geometry" />
        </mxCell>
        <mxCell id="Km5KgOMg6tNFVgr9Pe1_-14" value="description : text" style="text;strokeColor=none;fillColor=none;align=left;verticalAlign=top;spacingLeft=4;spacingRight=4;overflow=hidden;rotatable=0;points=[[0,0.5],[1,0.5]];portConstraint=eastwest;" parent="Km5KgOMg6tNFVgr9Pe1_-11" vertex="1">
          <mxGeometry y="78" width="140" height="26" as="geometry" />
        </mxCell>
        <mxCell id="Km5KgOMg6tNFVgr9Pe1_-15" value="nbPictures : int" style="text;strokeColor=none;fillColor=none;align=left;verticalAlign=top;spacingLeft=4;spacingRight=4;overflow=hidden;rotatable=0;points=[[0,0.5],[1,0.5]];portConstraint=eastwest;" parent="Km5KgOMg6tNFVgr9Pe1_-11" vertex="1">
          <mxGeometry y="104" width="140" height="26" as="geometry" />
        </mxCell>
        <mxCell id="Km5KgOMg6tNFVgr9Pe1_-16" value="public : boolean" style="text;strokeColor=none;fillColor=none;align=left;verticalAlign=top;spacingLeft=4;spacingRight=4;overflow=hidden;rotatable=0;points=[[0,0.5],[1,0.5]];portConstraint=eastwest;" parent="Km5KgOMg6tNFVgr9Pe1_-11" vertex="1">
          <mxGeometry y="130" width="140" height="26" as="geometry" />
        </mxCell>
        <mxCell id="Km5KgOMg6tNFVgr9Pe1_-29" value="createdAt : date" style="text;strokeColor=none;fillColor=none;align=left;verticalAlign=top;spacingLeft=4;spacingRight=4;overflow=hidden;rotatable=0;points=[[0,0.5],[1,0.5]];portConstraint=eastwest;" parent="Km5KgOMg6tNFVgr9Pe1_-11" vertex="1">
          <mxGeometry y="156" width="140" height="26" as="geometry" />
        </mxCell>
        <mxCell id="Km5KgOMg6tNFVgr9Pe1_-18" value="gallery_to_picture" style="swimlane;fontStyle=0;childLayout=stackLayout;horizontal=1;startSize=26;fillColor=none;horizontalStack=0;resizeParent=1;resizeParentMax=0;resizeLast=0;collapsible=1;marginBottom=0;" parent="1" vertex="1">
          <mxGeometry x="440" y="360" width="140" height="78" as="geometry" />
        </mxCell>
        <mxCell id="Km5KgOMg6tNFVgr9Pe1_-19" value="id_gallery : int" style="text;strokeColor=none;fillColor=none;align=left;verticalAlign=top;spacingLeft=4;spacingRight=4;overflow=hidden;rotatable=0;points=[[0,0.5],[1,0.5]];portConstraint=eastwest;" parent="Km5KgOMg6tNFVgr9Pe1_-18" vertex="1">
          <mxGeometry y="26" width="140" height="26" as="geometry" />
        </mxCell>
        <mxCell id="Km5KgOMg6tNFVgr9Pe1_-20" value="id_picture : int" style="text;strokeColor=none;fillColor=none;align=left;verticalAlign=top;spacingLeft=4;spacingRight=4;overflow=hidden;rotatable=0;points=[[0,0.5],[1,0.5]];portConstraint=eastwest;" parent="Km5KgOMg6tNFVgr9Pe1_-18" vertex="1">
          <mxGeometry y="52" width="140" height="26" as="geometry" />
        </mxCell>
        <mxCell id="Km5KgOMg6tNFVgr9Pe1_-31" value="picture" style="swimlane;fontStyle=0;childLayout=stackLayout;horizontal=1;startSize=26;fillColor=none;horizontalStack=0;resizeParent=1;resizeParentMax=0;resizeLast=0;collapsible=1;marginBottom=0;" parent="1" vertex="1">
          <mxGeometry x="650" y="360" width="140" height="78" as="geometry" />
        </mxCell>
        <mxCell id="Km5KgOMg6tNFVgr9Pe1_-32" value="id : int" style="text;strokeColor=none;fillColor=none;align=left;verticalAlign=top;spacingLeft=4;spacingRight=4;overflow=hidden;rotatable=0;points=[[0,0.5],[1,0.5]];portConstraint=eastwest;" parent="Km5KgOMg6tNFVgr9Pe1_-31" vertex="1">
          <mxGeometry y="26" width="140" height="26" as="geometry" />
        </mxCell>
        <mxCell id="Km5KgOMg6tNFVgr9Pe1_-33" value="name : text" style="text;strokeColor=none;fillColor=none;align=left;verticalAlign=top;spacingLeft=4;spacingRight=4;overflow=hidden;rotatable=0;points=[[0,0.5],[1,0.5]];portConstraint=eastwest;" parent="Km5KgOMg6tNFVgr9Pe1_-31" vertex="1">
          <mxGeometry y="52" width="140" height="26" as="geometry" />
        </mxCell>
        <mxCell id="Km5KgOMg6tNFVgr9Pe1_-43" value="picture_to_comment" style="swimlane;fontStyle=0;childLayout=stackLayout;horizontal=1;startSize=26;fillColor=none;horizontalStack=0;resizeParent=1;resizeParentMax=0;resizeLast=0;collapsible=1;marginBottom=0;" parent="1" vertex="1">
          <mxGeometry x="860" y="360" width="140" height="78" as="geometry" />
        </mxCell>
        <mxCell id="Km5KgOMg6tNFVgr9Pe1_-44" value="id_picture : int" style="text;strokeColor=none;fillColor=none;align=left;verticalAlign=top;spacingLeft=4;spacingRight=4;overflow=hidden;rotatable=0;points=[[0,0.5],[1,0.5]];portConstraint=eastwest;" parent="Km5KgOMg6tNFVgr9Pe1_-43" vertex="1">
          <mxGeometry y="26" width="140" height="26" as="geometry" />
        </mxCell>
        <mxCell id="Km5KgOMg6tNFVgr9Pe1_-45" value="id_comment : int" style="text;strokeColor=none;fillColor=none;align=left;verticalAlign=top;spacingLeft=4;spacingRight=4;overflow=hidden;rotatable=0;points=[[0,0.5],[1,0.5]];portConstraint=eastwest;" parent="Km5KgOMg6tNFVgr9Pe1_-43" vertex="1">
          <mxGeometry y="52" width="140" height="26" as="geometry" />
        </mxCell>
        <mxCell id="Km5KgOMg6tNFVgr9Pe1_-48" value="comment" style="swimlane;fontStyle=0;childLayout=stackLayout;horizontal=1;startSize=26;fillColor=none;horizontalStack=0;resizeParent=1;resizeParentMax=0;resizeLast=0;collapsible=1;marginBottom=0;" parent="1" vertex="1">
          <mxGeometry x="1090" y="360" width="140" height="104" as="geometry" />
        </mxCell>
        <mxCell id="Km5KgOMg6tNFVgr9Pe1_-49" value="id : int" style="text;strokeColor=none;fillColor=none;align=left;verticalAlign=top;spacingLeft=4;spacingRight=4;overflow=hidden;rotatable=0;points=[[0,0.5],[1,0.5]];portConstraint=eastwest;" parent="Km5KgOMg6tNFVgr9Pe1_-48" vertex="1">
          <mxGeometry y="26" width="140" height="26" as="geometry" />
        </mxCell>
        <mxCell id="Km5KgOMg6tNFVgr9Pe1_-50" value="id_auteur : int" style="text;strokeColor=none;fillColor=none;align=left;verticalAlign=top;spacingLeft=4;spacingRight=4;overflow=hidden;rotatable=0;points=[[0,0.5],[1,0.5]];portConstraint=eastwest;" parent="Km5KgOMg6tNFVgr9Pe1_-48" vertex="1">
          <mxGeometry y="52" width="140" height="26" as="geometry" />
        </mxCell>
        <mxCell id="Km5KgOMg6tNFVgr9Pe1_-51" value="content : text" style="text;strokeColor=none;fillColor=none;align=left;verticalAlign=top;spacingLeft=4;spacingRight=4;overflow=hidden;rotatable=0;points=[[0,0.5],[1,0.5]];portConstraint=eastwest;" parent="Km5KgOMg6tNFVgr9Pe1_-48" vertex="1">
          <mxGeometry y="78" width="140" height="26" as="geometry" />
        </mxCell>
        <mxCell id="Km5KgOMg6tNFVgr9Pe1_-58" value="picture_to_metadata" style="swimlane;fontStyle=0;childLayout=stackLayout;horizontal=1;startSize=26;fillColor=none;horizontalStack=0;resizeParent=1;resizeParentMax=0;resizeLast=0;collapsible=1;marginBottom=0;" parent="1" vertex="1">
          <mxGeometry x="650" y="210" width="140" height="78" as="geometry" />
        </mxCell>
        <mxCell id="Km5KgOMg6tNFVgr9Pe1_-59" value="id_metadata : int&#xa; " style="text;strokeColor=none;fillColor=none;align=left;verticalAlign=top;spacingLeft=4;spacingRight=4;overflow=hidden;rotatable=0;points=[[0,0.5],[1,0.5]];portConstraint=eastwest;" parent="Km5KgOMg6tNFVgr9Pe1_-58" vertex="1">
          <mxGeometry y="26" width="140" height="26" as="geometry" />
        </mxCell>
        <mxCell id="Km5KgOMg6tNFVgr9Pe1_-60" value="id_picture : int" style="text;strokeColor=none;fillColor=none;align=left;verticalAlign=top;spacingLeft=4;spacingRight=4;overflow=hidden;rotatable=0;points=[[0,0.5],[1,0.5]];portConstraint=eastwest;" parent="Km5KgOMg6tNFVgr9Pe1_-58" vertex="1">
          <mxGeometry y="52" width="140" height="26" as="geometry" />
        </mxCell>
        <mxCell id="Km5KgOMg6tNFVgr9Pe1_-72" value="metadata" style="swimlane;fontStyle=0;childLayout=stackLayout;horizontal=1;startSize=26;fillColor=none;horizontalStack=0;resizeParent=1;resizeParentMax=0;resizeLast=0;collapsible=1;marginBottom=0;" parent="1" vertex="1">
          <mxGeometry x="650" y="30" width="140" height="78" as="geometry" />
        </mxCell>
        <mxCell id="Km5KgOMg6tNFVgr9Pe1_-73" value="id : int" style="text;strokeColor=none;fillColor=none;align=left;verticalAlign=top;spacingLeft=4;spacingRight=4;overflow=hidden;rotatable=0;points=[[0,0.5],[1,0.5]];portConstraint=eastwest;" parent="Km5KgOMg6tNFVgr9Pe1_-72" vertex="1">
          <mxGeometry y="26" width="140" height="26" as="geometry" />
        </mxCell>
        <mxCell id="Km5KgOMg6tNFVgr9Pe1_-76" value="value : json" style="text;strokeColor=none;fillColor=none;align=left;verticalAlign=top;spacingLeft=4;spacingRight=4;overflow=hidden;rotatable=0;points=[[0,0.5],[1,0.5]];portConstraint=eastwest;" parent="Km5KgOMg6tNFVgr9Pe1_-72" vertex="1">
          <mxGeometry y="52" width="140" height="26" as="geometry" />
        </mxCell>
        <mxCell id="Km5KgOMg6tNFVgr9Pe1_-79" value="gallery_to_tag" style="swimlane;fontStyle=0;childLayout=stackLayout;horizontal=1;startSize=26;fillColor=none;horizontalStack=0;resizeParent=1;resizeParentMax=0;resizeLast=0;collapsible=1;marginBottom=0;" parent="1" vertex="1">
          <mxGeometry x="-60" y="412" width="140" height="78" as="geometry" />
        </mxCell>
        <mxCell id="Km5KgOMg6tNFVgr9Pe1_-80" value="id_gallery : int" style="text;strokeColor=none;fillColor=none;align=left;verticalAlign=top;spacingLeft=4;spacingRight=4;overflow=hidden;rotatable=0;points=[[0,0.5],[1,0.5]];portConstraint=eastwest;" parent="Km5KgOMg6tNFVgr9Pe1_-79" vertex="1">
          <mxGeometry y="26" width="140" height="26" as="geometry" />
        </mxCell>
        <mxCell id="Km5KgOMg6tNFVgr9Pe1_-87" value="id_tag : int" style="text;strokeColor=none;fillColor=none;align=left;verticalAlign=top;spacingLeft=4;spacingRight=4;overflow=hidden;rotatable=0;points=[[0,0.5],[1,0.5]];portConstraint=eastwest;" parent="Km5KgOMg6tNFVgr9Pe1_-79" vertex="1">
          <mxGeometry y="52" width="140" height="26" as="geometry" />
        </mxCell>
        <mxCell id="Km5KgOMg6tNFVgr9Pe1_-88" value="tag" style="swimlane;fontStyle=0;childLayout=stackLayout;horizontal=1;startSize=26;fillColor=none;horizontalStack=0;resizeParent=1;resizeParentMax=0;resizeLast=0;collapsible=1;marginBottom=0;" parent="1" vertex="1">
          <mxGeometry x="-320" y="412" width="140" height="78" as="geometry" />
        </mxCell>
        <mxCell id="Km5KgOMg6tNFVgr9Pe1_-89" value="id : int" style="text;strokeColor=none;fillColor=none;align=left;verticalAlign=top;spacingLeft=4;spacingRight=4;overflow=hidden;rotatable=0;points=[[0,0.5],[1,0.5]];portConstraint=eastwest;" parent="Km5KgOMg6tNFVgr9Pe1_-88" vertex="1">
          <mxGeometry y="26" width="140" height="26" as="geometry" />
        </mxCell>
        <mxCell id="Km5KgOMg6tNFVgr9Pe1_-90" value="name : text" style="text;strokeColor=none;fillColor=none;align=left;verticalAlign=top;spacingLeft=4;spacingRight=4;overflow=hidden;rotatable=0;points=[[0,0.5],[1,0.5]];portConstraint=eastwest;" parent="Km5KgOMg6tNFVgr9Pe1_-88" vertex="1">
          <mxGeometry y="52" width="140" height="26" as="geometry" />
        </mxCell>
        <mxCell id="Km5KgOMg6tNFVgr9Pe1_-97" value="" style="endArrow=classic;html=1;edgeStyle=orthogonalEdgeStyle;rounded=0;endFill=1;" parent="1" edge="1">
          <mxGeometry relative="1" as="geometry">
            <mxPoint x="-180" y="450" as="sourcePoint" />
            <mxPoint x="-60" y="450" as="targetPoint" />
          </mxGeometry>
        </mxCell>
        <mxCell id="Km5KgOMg6tNFVgr9Pe1_-98" value="*" style="edgeLabel;resizable=0;html=1;align=left;verticalAlign=bottom;" parent="Km5KgOMg6tNFVgr9Pe1_-97" connectable="0" vertex="1">
          <mxGeometry x="-1" relative="1" as="geometry" />
        </mxCell>
        <mxCell id="Km5KgOMg6tNFVgr9Pe1_-99" value="*" style="edgeLabel;resizable=0;html=1;align=right;verticalAlign=bottom;" parent="Km5KgOMg6tNFVgr9Pe1_-97" connectable="0" vertex="1">
          <mxGeometry x="1" relative="1" as="geometry" />
        </mxCell>
        <mxCell id="Km5KgOMg6tNFVgr9Pe1_-103" value="" style="endArrow=none;html=1;edgeStyle=orthogonalEdgeStyle;rounded=0;entryX=0;entryY=0.5;entryDx=0;entryDy=0;endFill=0;startArrow=classic;startFill=1;" parent="1" target="Km5KgOMg6tNFVgr9Pe1_-14" edge="1">
          <mxGeometry relative="1" as="geometry">
            <mxPoint x="80" y="450.83" as="sourcePoint" />
            <mxPoint x="240" y="450.83" as="targetPoint" />
          </mxGeometry>
        </mxCell>
        <mxCell id="Km5KgOMg6tNFVgr9Pe1_-104" value="*" style="edgeLabel;resizable=0;html=1;align=left;verticalAlign=bottom;" parent="Km5KgOMg6tNFVgr9Pe1_-103" connectable="0" vertex="1">
          <mxGeometry x="-1" relative="1" as="geometry" />
        </mxCell>
        <mxCell id="Km5KgOMg6tNFVgr9Pe1_-105" value="*" style="edgeLabel;resizable=0;html=1;align=right;verticalAlign=bottom;" parent="Km5KgOMg6tNFVgr9Pe1_-103" connectable="0" vertex="1">
          <mxGeometry x="1" relative="1" as="geometry" />
        </mxCell>
        <mxCell id="Km5KgOMg6tNFVgr9Pe1_-106" value="" style="endArrow=classic;html=1;edgeStyle=orthogonalEdgeStyle;rounded=0;entryX=0.5;entryY=1.077;entryDx=0;entryDy=0;entryPerimeter=0;exitX=0.5;exitY=0;exitDx=0;exitDy=0;endFill=1;" parent="1" source="Km5KgOMg6tNFVgr9Pe1_-11" target="Km5KgOMg6tNFVgr9Pe1_-8" edge="1">
          <mxGeometry relative="1" as="geometry">
            <mxPoint x="240" y="330" as="sourcePoint" />
            <mxPoint x="400" y="330" as="targetPoint" />
            <Array as="points">
              <mxPoint x="260" y="310" />
              <mxPoint x="260" y="310" />
            </Array>
          </mxGeometry>
        </mxCell>
        <mxCell id="Km5KgOMg6tNFVgr9Pe1_-107" value="*" style="edgeLabel;resizable=0;html=1;align=left;verticalAlign=bottom;" parent="Km5KgOMg6tNFVgr9Pe1_-106" connectable="0" vertex="1">
          <mxGeometry x="-1" relative="1" as="geometry" />
        </mxCell>
        <mxCell id="Km5KgOMg6tNFVgr9Pe1_-108" value="1" style="edgeLabel;resizable=0;html=1;align=right;verticalAlign=bottom;" parent="Km5KgOMg6tNFVgr9Pe1_-106" connectable="0" vertex="1">
          <mxGeometry x="1" relative="1" as="geometry">
            <mxPoint x="-10" y="20" as="offset" />
          </mxGeometry>
        </mxCell>
        <mxCell id="Km5KgOMg6tNFVgr9Pe1_-112" value="" style="endArrow=classic;html=1;edgeStyle=orthogonalEdgeStyle;rounded=0;endFill=1;" parent="1" edge="1">
          <mxGeometry relative="1" as="geometry">
            <mxPoint x="330" y="400" as="sourcePoint" />
            <mxPoint x="440" y="400" as="targetPoint" />
          </mxGeometry>
        </mxCell>
        <mxCell id="Km5KgOMg6tNFVgr9Pe1_-113" value="1" style="edgeLabel;resizable=0;html=1;align=left;verticalAlign=bottom;" parent="Km5KgOMg6tNFVgr9Pe1_-112" connectable="0" vertex="1">
          <mxGeometry x="-1" relative="1" as="geometry" />
        </mxCell>
        <mxCell id="Km5KgOMg6tNFVgr9Pe1_-114" value="*" style="edgeLabel;resizable=0;html=1;align=right;verticalAlign=bottom;" parent="Km5KgOMg6tNFVgr9Pe1_-112" connectable="0" vertex="1">
          <mxGeometry x="1" relative="1" as="geometry" />
        </mxCell>
        <mxCell id="Km5KgOMg6tNFVgr9Pe1_-116" value="" style="endArrow=none;html=1;edgeStyle=orthogonalEdgeStyle;rounded=0;exitX=1;exitY=0.5;exitDx=0;exitDy=0;entryX=0;entryY=0.5;entryDx=0;entryDy=0;endFill=0;startArrow=classic;startFill=1;" parent="1" source="Km5KgOMg6tNFVgr9Pe1_-19" target="Km5KgOMg6tNFVgr9Pe1_-32" edge="1">
          <mxGeometry relative="1" as="geometry">
            <mxPoint x="560" y="420" as="sourcePoint" />
            <mxPoint x="650" y="400" as="targetPoint" />
          </mxGeometry>
        </mxCell>
        <mxCell id="Km5KgOMg6tNFVgr9Pe1_-117" value="1" style="edgeLabel;resizable=0;html=1;align=left;verticalAlign=bottom;" parent="Km5KgOMg6tNFVgr9Pe1_-116" connectable="0" vertex="1">
          <mxGeometry x="-1" relative="1" as="geometry" />
        </mxCell>
        <mxCell id="Km5KgOMg6tNFVgr9Pe1_-118" value="*" style="edgeLabel;resizable=0;html=1;align=right;verticalAlign=bottom;" parent="Km5KgOMg6tNFVgr9Pe1_-116" connectable="0" vertex="1">
          <mxGeometry x="1" relative="1" as="geometry" />
        </mxCell>
        <mxCell id="Km5KgOMg6tNFVgr9Pe1_-109" value="" style="endArrow=none;html=1;edgeStyle=orthogonalEdgeStyle;rounded=0;entryX=0.505;entryY=1.023;entryDx=0;entryDy=0;exitX=0.5;exitY=0;exitDx=0;exitDy=0;startArrow=classic;startFill=1;entryPerimeter=0;" parent="1" source="Km5KgOMg6tNFVgr9Pe1_-6" target="Km5KgOMg6tNFVgr9Pe1_-30" edge="1">
          <mxGeometry relative="1" as="geometry">
            <mxPoint x="240" y="220" as="sourcePoint" />
            <mxPoint x="400" y="220" as="targetPoint" />
            <Array as="points">
              <mxPoint x="260" y="193" />
            </Array>
          </mxGeometry>
        </mxCell>
        <mxCell id="Km5KgOMg6tNFVgr9Pe1_-110" value="*" style="edgeLabel;resizable=0;html=1;align=left;verticalAlign=bottom;" parent="Km5KgOMg6tNFVgr9Pe1_-109" connectable="0" vertex="1">
          <mxGeometry x="-1" relative="1" as="geometry">
            <mxPoint x="10" as="offset" />
          </mxGeometry>
        </mxCell>
        <mxCell id="Km5KgOMg6tNFVgr9Pe1_-111" value="1" style="edgeLabel;resizable=0;html=1;align=right;verticalAlign=bottom;" parent="Km5KgOMg6tNFVgr9Pe1_-109" connectable="0" vertex="1">
          <mxGeometry x="1" relative="1" as="geometry">
            <mxPoint x="-7" y="18" as="offset" />
          </mxGeometry>
        </mxCell>
        <mxCell id="Km5KgOMg6tNFVgr9Pe1_-120" value="" style="endArrow=classic;html=1;edgeStyle=orthogonalEdgeStyle;rounded=0;entryX=0.501;entryY=1.038;entryDx=0;entryDy=0;entryPerimeter=0;exitX=0.5;exitY=0;exitDx=0;exitDy=0;startArrow=none;startFill=0;endFill=1;" parent="1" source="Km5KgOMg6tNFVgr9Pe1_-31" target="Km5KgOMg6tNFVgr9Pe1_-60" edge="1">
          <mxGeometry relative="1" as="geometry">
            <mxPoint x="680" y="330" as="sourcePoint" />
            <mxPoint x="840" y="330" as="targetPoint" />
          </mxGeometry>
        </mxCell>
        <mxCell id="Km5KgOMg6tNFVgr9Pe1_-121" value="1" style="edgeLabel;resizable=0;html=1;align=left;verticalAlign=bottom;" parent="Km5KgOMg6tNFVgr9Pe1_-120" connectable="0" vertex="1">
          <mxGeometry x="-1" relative="1" as="geometry" />
        </mxCell>
        <mxCell id="Km5KgOMg6tNFVgr9Pe1_-122" value="1" style="edgeLabel;resizable=0;html=1;align=right;verticalAlign=bottom;" parent="Km5KgOMg6tNFVgr9Pe1_-120" connectable="0" vertex="1">
          <mxGeometry x="1" relative="1" as="geometry">
            <mxPoint x="-10" y="21" as="offset" />
          </mxGeometry>
        </mxCell>
        <mxCell id="Km5KgOMg6tNFVgr9Pe1_-123" value="" style="endArrow=none;html=1;edgeStyle=orthogonalEdgeStyle;rounded=0;entryX=0.499;entryY=1.023;entryDx=0;entryDy=0;entryPerimeter=0;exitX=0.5;exitY=0;exitDx=0;exitDy=0;startArrow=classic;startFill=1;" parent="1" source="Km5KgOMg6tNFVgr9Pe1_-58" target="Km5KgOMg6tNFVgr9Pe1_-76" edge="1">
          <mxGeometry relative="1" as="geometry">
            <mxPoint x="680" y="170" as="sourcePoint" />
            <mxPoint x="840" y="170" as="targetPoint" />
          </mxGeometry>
        </mxCell>
        <mxCell id="Km5KgOMg6tNFVgr9Pe1_-124" value="1" style="edgeLabel;resizable=0;html=1;align=left;verticalAlign=bottom;" parent="Km5KgOMg6tNFVgr9Pe1_-123" connectable="0" vertex="1">
          <mxGeometry x="-1" relative="1" as="geometry">
            <mxPoint x="10" as="offset" />
          </mxGeometry>
        </mxCell>
        <mxCell id="Km5KgOMg6tNFVgr9Pe1_-125" value="1" style="edgeLabel;resizable=0;html=1;align=right;verticalAlign=bottom;" parent="Km5KgOMg6tNFVgr9Pe1_-123" connectable="0" vertex="1">
          <mxGeometry x="1" relative="1" as="geometry">
            <mxPoint x="-10" y="22" as="offset" />
          </mxGeometry>
        </mxCell>
        <mxCell id="Km5KgOMg6tNFVgr9Pe1_-126" value="" style="endArrow=classic;html=1;edgeStyle=orthogonalEdgeStyle;rounded=0;endFill=1;" parent="1" edge="1">
          <mxGeometry relative="1" as="geometry">
            <mxPoint x="790" y="400" as="sourcePoint" />
            <mxPoint x="860" y="400" as="targetPoint" />
          </mxGeometry>
        </mxCell>
        <mxCell id="Km5KgOMg6tNFVgr9Pe1_-127" value="*" style="edgeLabel;resizable=0;html=1;align=left;verticalAlign=bottom;" parent="Km5KgOMg6tNFVgr9Pe1_-126" connectable="0" vertex="1">
          <mxGeometry x="-1" relative="1" as="geometry" />
        </mxCell>
        <mxCell id="Km5KgOMg6tNFVgr9Pe1_-128" value="*" style="edgeLabel;resizable=0;html=1;align=right;verticalAlign=bottom;" parent="Km5KgOMg6tNFVgr9Pe1_-126" connectable="0" vertex="1">
          <mxGeometry x="1" relative="1" as="geometry" />
        </mxCell>
        <mxCell id="Km5KgOMg6tNFVgr9Pe1_-132" value="" style="endArrow=none;html=1;edgeStyle=orthogonalEdgeStyle;rounded=0;entryX=0;entryY=0.5;entryDx=0;entryDy=0;startArrow=classic;startFill=1;" parent="1" target="Km5KgOMg6tNFVgr9Pe1_-49" edge="1">
          <mxGeometry relative="1" as="geometry">
            <mxPoint x="1000" y="398.8" as="sourcePoint" />
            <mxPoint x="1160" y="398.8" as="targetPoint" />
          </mxGeometry>
        </mxCell>
        <mxCell id="Km5KgOMg6tNFVgr9Pe1_-133" value="*" style="edgeLabel;resizable=0;html=1;align=left;verticalAlign=bottom;" parent="Km5KgOMg6tNFVgr9Pe1_-132" connectable="0" vertex="1">
          <mxGeometry x="-1" relative="1" as="geometry" />
        </mxCell>
        <mxCell id="Km5KgOMg6tNFVgr9Pe1_-134" value="*" style="edgeLabel;resizable=0;html=1;align=right;verticalAlign=bottom;" parent="Km5KgOMg6tNFVgr9Pe1_-132" connectable="0" vertex="1">
          <mxGeometry x="1" relative="1" as="geometry" />
        </mxCell>
        <mxCell id="C_y0H9jqfVRLg7BTMlWC-1" value="User_access" style="swimlane;fontStyle=0;childLayout=stackLayout;horizontal=1;startSize=26;fillColor=none;horizontalStack=0;resizeParent=1;resizeParentMax=0;resizeLast=0;collapsible=1;marginBottom=0;" vertex="1" parent="1">
          <mxGeometry x="190" y="600" width="140" height="78" as="geometry" />
        </mxCell>
        <mxCell id="C_y0H9jqfVRLg7BTMlWC-2" value="id_user : int" style="text;strokeColor=none;fillColor=none;align=left;verticalAlign=top;spacingLeft=4;spacingRight=4;overflow=hidden;rotatable=0;points=[[0,0.5],[1,0.5]];portConstraint=eastwest;" vertex="1" parent="C_y0H9jqfVRLg7BTMlWC-1">
          <mxGeometry y="26" width="140" height="26" as="geometry" />
        </mxCell>
        <mxCell id="C_y0H9jqfVRLg7BTMlWC-3" value="id_deck" style="text;strokeColor=none;fillColor=none;align=left;verticalAlign=top;spacingLeft=4;spacingRight=4;overflow=hidden;rotatable=0;points=[[0,0.5],[1,0.5]];portConstraint=eastwest;" vertex="1" parent="C_y0H9jqfVRLg7BTMlWC-1">
          <mxGeometry y="52" width="140" height="26" as="geometry" />
        </mxCell>
        <mxCell id="C_y0H9jqfVRLg7BTMlWC-13" value="" style="endArrow=classic;html=1;edgeStyle=orthogonalEdgeStyle;rounded=0;entryX=0.5;entryY=0;entryDx=0;entryDy=0;endFill=1;" edge="1" parent="1" target="C_y0H9jqfVRLg7BTMlWC-1">
          <mxGeometry relative="1" as="geometry">
            <mxPoint x="260" y="543" as="sourcePoint" />
            <mxPoint x="340" y="560" as="targetPoint" />
            <Array as="points">
              <mxPoint x="260" y="543" />
            </Array>
          </mxGeometry>
        </mxCell>
        <mxCell id="C_y0H9jqfVRLg7BTMlWC-14" value="*" style="edgeLabel;resizable=0;html=1;align=left;verticalAlign=bottom;" connectable="0" vertex="1" parent="C_y0H9jqfVRLg7BTMlWC-13">
          <mxGeometry x="-1" relative="1" as="geometry">
            <mxPoint x="9" y="17" as="offset" />
          </mxGeometry>
        </mxCell>
        <mxCell id="C_y0H9jqfVRLg7BTMlWC-15" value="*" style="edgeLabel;resizable=0;html=1;align=right;verticalAlign=bottom;" connectable="0" vertex="1" parent="C_y0H9jqfVRLg7BTMlWC-13">
          <mxGeometry x="1" relative="1" as="geometry">
            <mxPoint x="-10" as="offset" />
          </mxGeometry>
        </mxCell>
      </root>
    </mxGraphModel>
  </diagram>
</mxfile>
